<svg id="Capa_1" enable-background="new 0 0 512 512" height="512" viewBox="0 0 512 512" width="512" xmlns="http://www.w3.org/2000/svg"><g><path d="m508.726 256.371-78.124-119.163c-3.696-5.638-9.984-9.034-16.726-9.034h-97.187v-42.674c0-11.046-8.954-20-20-20h-276.689c-11.046 0-20 8.954-20 20v301c0 11.046 8.954 20 20 20h63.44c8.256 23.278 30.487 40 56.56 40s48.303-16.722 56.56-40h141.227c8.256 23.278 30.487 40 56.56 40s48.303-16.722 56.56-40h41.093c11.046 0 20-8.954 20-20v-119.163c0-3.896-1.138-7.708-3.274-10.966zm-368.726 150.129c-11.028 0-20-8.972-20-20s8.972-20 20-20 20 8.972 20 20-8.972 20-20 20zm136.689-40h-80.13c-8.256-23.278-30.487-40-56.56-40s-48.303 16.722-56.56 40h-43.439v-261h236.689zm117.658 40c-11.028 0-20-8.972-20-20s8.972-20 20-20 20 8.972 20 20-8.972 20-20 20zm77.653-40h-21.094c-8.256-23.278-30.487-40-56.56-40s-48.303 16.722-56.56 40h-21.098v-198.326h86.384l68.928 105.135z"/></g></svg>