<svg xmlns="http://www.w3.org/2000/svg" xmlns:xlink="http://www.w3.org/1999/xlink" width="16px" height="15px">>
	<g>
		<path fill-rule="evenodd"  fill="#ff4300" d="M4.000,7.974 C4.933,7.974 5.693,7.628 6.280,6.934 C6.866,6.241 7.160,5.321 7.160,4.174 C7.160,3.028 6.866,2.108 6.280,1.414 C5.693,0.721 4.933,0.374 4.000,0.374 C3.053,0.374 2.290,0.724 1.710,1.424 C1.130,2.124 0.840,3.041 0.840,4.174 C0.840,5.308 1.130,6.224 1.710,6.924 C2.290,7.624 3.053,7.974 4.000,7.974 L4.000,7.974 ZM2.920,14.475 L4.100,14.475 L13.660,0.474 L12.480,0.474 L2.920,14.475 ZM4.000,7.074 C3.333,7.074 2.806,6.814 2.420,6.294 C2.033,5.774 1.840,5.068 1.840,4.174 C1.840,3.281 2.033,2.574 2.420,2.055 C2.806,1.534 3.333,1.274 4.000,1.274 C4.653,1.274 5.177,1.531 5.570,2.044 C5.963,2.558 6.160,3.268 6.160,4.174 C6.160,5.081 5.963,5.791 5.570,6.304 C5.177,6.818 4.653,7.074 4.000,7.074 L4.000,7.074 ZM12.580,14.574 C13.527,14.574 14.290,14.224 14.870,13.524 C15.450,12.824 15.740,11.908 15.740,10.775 C15.740,9.641 15.450,8.724 14.870,8.025 C14.290,7.324 13.527,6.975 12.580,6.975 C11.646,6.975 10.887,7.324 10.300,8.025 C9.713,8.724 9.420,9.641 9.420,10.775 C9.420,11.908 9.713,12.824 10.300,13.524 C10.887,14.224 11.646,14.574 12.580,14.574 L12.580,14.574 ZM12.580,13.674 C11.927,13.674 11.403,13.418 11.010,12.904 C10.617,12.391 10.420,11.681 10.420,10.775 C10.420,9.868 10.617,9.158 11.010,8.644 C11.403,8.131 11.927,7.874 12.580,7.874 C13.247,7.874 13.773,8.134 14.160,8.654 C14.546,9.175 14.740,9.881 14.740,10.775 C14.740,11.668 14.546,12.375 14.160,12.894 C13.773,13.414 13.247,13.674 12.580,13.674 L12.580,13.674 Z"/>
	</g>
</svg>